HIERARCHY
ROOT Hips
{
	OFFSET 0.00000 0.00000 0.00000
	CHANNELS 6 Xposition Yposition Zposition Zrotation Yrotation Xrotation 
	JOINT LHipJoint
	{
		OFFSET 0 0 0
		CHANNELS 3 Zrotation Yrotation Xrotation
		JOINT LeftUpLeg
		{
			OFFSET 1.26600 -1.82114 0.91038
			CHANNELS 3 Zrotation Yrotation Xrotation
			JOINT LeftLeg
			{
				OFFSET 2.50076 -6.87080 0.00000
				CHANNELS 3 Zrotation Yrotation Xrotation
				JOINT LeftFoot
				{
					OFFSET 2.57364 -7.07102 0.00000
					CHANNELS 3 Zrotation Yrotation Xrotation
					JOINT LeftToeBase
					{
						OFFSET 0.13572 -0.37290 1.97004
						CHANNELS 3 Zrotation Yrotation Xrotation
						End Site
						{
							OFFSET 0.00000 -0.00000 1.01383
						}
					}
				}
			}
		}
	}
	JOINT RHipJoint
	{
		OFFSET 0 0 0
		CHANNELS 3 Zrotation Yrotation Xrotation
		JOINT RightUpLeg
		{
			OFFSET -1.20803 -1.82114 0.91038
			CHANNELS 3 Zrotation Yrotation Xrotation
			JOINT RightLeg
			{
				OFFSET -2.54916 -7.00377 0.00000
				CHANNELS 3 Zrotation Yrotation Xrotation
				JOINT RightFoot
				{
					OFFSET -2.56374 -7.04382 0.00000
					CHANNELS 3 Zrotation Yrotation Xrotation
					JOINT RightToeBase
					{
						OFFSET -0.23520 -0.64621 2.09921
						CHANNELS 3 Zrotation Yrotation Xrotation
						End Site
						{
							OFFSET -0.00000 -0.00000 1.10065
						}
					}
				}
			}
		}
	}
	JOINT LowerBack
	{
		OFFSET 0 0 0
		CHANNELS 3 Zrotation Yrotation Xrotation
		JOINT Spine
		{
			OFFSET 0.05492 2.10797 -0.12074
			CHANNELS 3 Zrotation Yrotation Xrotation
			JOINT Spine1
			{
				OFFSET 0.04577 2.11592 -0.04483
				CHANNELS 3 Zrotation Yrotation Xrotation
				JOINT Neck
				{
					OFFSET 0 0 0
					CHANNELS 3 Zrotation Yrotation Xrotation
					JOINT Neck1
					{
						OFFSET -0.10759 1.80167 0.15770
						CHANNELS 3 Zrotation Yrotation Xrotation
						JOINT Head
						{
							OFFSET 0.09237 1.77509 -0.40848
							CHANNELS 3 Zrotation Yrotation Xrotation
							End Site
							{
								OFFSET 0.03805 1.84093 -0.15754
							}
						}
					}
				}
				JOINT LeftShoulder
				{
					OFFSET 0 0 0
					CHANNELS 3 Zrotation Yrotation Xrotation
					JOINT LeftArm
					{
						OFFSET 3.42372 1.09575 -0.28209
						CHANNELS 3 Zrotation Yrotation Xrotation
						JOINT LeftForeArm
						{
							OFFSET 4.95681 -0.00000 0.00000
							CHANNELS 3 Zrotation Yrotation Xrotation
							JOINT LeftHand
							{
								OFFSET 3.40915 -0.00000 0.00000
								CHANNELS 3 Zrotation Yrotation Xrotation
								JOINT LeftFingerBase
								{
									OFFSET 0 0 0
									CHANNELS 3 Zrotation Yrotation Xrotation
									JOINT LeftHandIndex1
									{
										OFFSET 0.61640 -0.00000 0.00000
										CHANNELS 3 Zrotation Yrotation Xrotation
										End Site
										{
											OFFSET 0.49696 -0.00000 0.00000
										}
									}
								}
								JOINT LThumb
								{
									OFFSET 0 0 0
									CHANNELS 3 Zrotation Yrotation Xrotation
									End Site
									{
										OFFSET 0.50455 -0.00000 0.50455
									}
								}
							}
						}
					}
				}
				JOINT RightShoulder
				{
					OFFSET 0 0 0
					CHANNELS 3 Zrotation Yrotation Xrotation
					JOINT RightArm
					{
						OFFSET -3.24731 1.15872 -0.32221
						CHANNELS 3 Zrotation Yrotation Xrotation
						JOINT RightForeArm
						{
							OFFSET -5.35200 -0.00000 0.00000
							CHANNELS 3 Zrotation Yrotation Xrotation
							JOINT RightHand
							{
								OFFSET -3.43721 -0.00000 -0.00000
								CHANNELS 3 Zrotation Yrotation Xrotation
								JOINT RightFingerBase
								{
									OFFSET 0 0 0
									CHANNELS 3 Zrotation Yrotation Xrotation
									JOINT RightHandIndex1
									{
										OFFSET -0.72009 -0.00000 0.00000
										CHANNELS 3 Zrotation Yrotation Xrotation
										End Site
										{
											OFFSET -0.58056 -0.00000 0.00000
										}
									}
								}
								JOINT RThumb
								{
									OFFSET 0 0 0
									CHANNELS 3 Zrotation Yrotation Xrotation
									End Site
									{
										OFFSET -0.58942 -0.00000 0.58942
									}
								}
							}
						}
					}
				}
			}
		}
	}
}
MOTION
Frames: 10
Frame Time: 0.0215054
0.00 0.00 0.00 47.7466 -97.0069 1036.9900 0.0000 0.0000 0.0000 -13.6396 -3.3676 -33.1556 6.0188 14.4465 45.0570 -0.8159 -18.9176 -4.2483 1.9776 8.8193 25.2317 0.0000 0.0000 0.0000 22.9761 -4.9008 -3.6529 -5.6850 -14.1160 43.7040 -0.9142 -14.2184 18.4776 -1.1570 -6.8291 19.2101 2.0546 1.7489 9.2875 2.8827 2.5560 1.5243 1.5242 1.2187 -3.6631 -8.0451 1.1819 -13.6798 3.4485 1.4389 37.1394 2.9921 -0.5394 15.1545 0.0000 0.0000 0.0000 -86.9016 2.8919 22.2516 20.2709 -30.9673 -5.6701 -0.0000 0.0000 -5.8184 17.3744 20.4586 6.2413 -7.1250 0.0000 -0.0000 -11.2061 50.9915 -1.6721 0.0000 0.0000 0.0000 85.7026 1.1405 28.8914 -19.8714 30.4871 -5.4660 0.0000 -0.0000 -10.6488 -19.1553 9.4358 -3.2593 7.1250 -0.0000 -0.0000 5.5738 -20.0251 3.3439
0.00 0.00 0.00 -177.6730 -96.9235 1255.8700 0.0000 0.0000 0.0000 -18.2994 5.4467 10.8992 2.0462 8.9616 25.6753 -1.2678 -25.1888 -7.9027 1.0579 6.5396 18.3585 0.0000 0.0000 0.0000 19.0805 6.1793 -26.2181 -1.5736 -7.9148 22.4555 -1.0317 -19.3541 21.2204 -2.3193 -9.5016 27.3775 -3.9000 0.1386 4.8427 2.2008 -0.0118 2.4624 4.4656 -0.0706 -0.1765 -9.8799 0.7839 -11.1070 3.1559 0.9643 39.3103 3.1244 -1.2172 15.6841 -0.0000 -0.0000 0.0000 -88.8535 4.1833 19.5632 15.8265 -25.2848 -3.5715 -0.0000 0.0000 -0.0619 15.7528 21.1029 5.7992 -7.1250 0.0000 -0.0000 -13.0291 51.3681 -2.0734 -0.0000 -0.0000 0.0000 86.5575 -6.5326 14.4822 -14.0918 22.8658 -2.8637 0.0000 -0.0000 -12.5122 -16.5670 10.8258 -3.1981 7.1250 -0.0000 -0.0000 7.4101 -18.7491 4.6742
0.00 0.00 0.00 -196.1490 -103.2000 1270.6300 0.0000 0.0000 0.0000 -8.6159 -4.7566 6.1152 12.9337 18.7581 68.9194 -2.0388 -26.2156 20.9552 3.6932 11.7405 34.8201 0.0000 0.0000 0.0000 26.6095 0.1564 -11.1834 -2.7485 -10.2764 29.8765 -0.3375 1.6710 -10.5193 -0.0001 0.0617 -0.1694 2.5988 1.0669 3.8380 3.4187 1.4798 1.6191 1.9913 0.7133 -0.5121 -8.5507 0.6382 -9.8764 2.1177 0.6886 40.5966 2.4109 -1.3176 16.1039 0.0000 0.0000 0.0000 -90.9014 8.2791 -14.9513 7.8215 -13.2631 -0.9107 -0.0000 -0.0000 14.9906 24.0509 22.0108 9.4955 -7.1250 0.0000 -0.0000 -5.0476 53.7876 -1.0927 0.0000 0.0000 0.0000 87.7743 -5.0321 -1.7816 -7.7773 13.1913 -0.9006 0.0000 0.0000 3.3225 -16.3423 8.0988 -2.3655 7.1250 -0.0000 -0.0000 7.6111 -21.5733 4.3168
0.00 0.00 0.00 -189.2600 -217.9110 1254.3600 0.0000 0.0000 0.0000 -8.5205 -1.5407 -42.6529 15.4687 19.5004 76.6446 -0.5929 -20.5021 -9.0344 0.2544 -3.2451 -8.9618 0.0000 0.0000 0.0000 31.6415 -13.4404 -12.3990 -1.6690 -8.1395 23.1387 -0.8216 -5.8474 -20.2160 -0.8417 -5.8520 16.3555 10.1447 1.7157 10.0244 5.3476 3.5184 3.3611 -0.4854 1.8064 -1.8262 -7.9873 0.0469 -13.0604 -0.0777 3.5503 39.0229 2.0787 0.6032 16.0058 0.0000 -0.0000 0.0000 -88.9019 3.8664 26.8244 21.2127 -32.0758 -6.1625 -0.0000 0.0000 -4.0494 12.7740 19.6672 4.3634 -7.1250 0.0000 -0.0000 -15.3102 49.4818 -1.7282 0.0000 -0.0000 0.0000 83.5211 5.5884 26.4358 -12.0088 19.8178 -2.1053 0.0000 -0.0000 -1.2013 -23.3783 11.4122 -4.8889 7.1250 -0.0000 -0.0000 2.6324 -17.5852 1.7159
0.00 0.00 0.00 -192.6100 -229.5340 1249.0900 0.0000 0.0000 0.0000 -4.3039 -2.1004 -59.9072 26.1289 19.0745 108.1897 -0.6159 -23.3789 -11.7375 0.0264 -1.0492 -2.8842 0.0000 0.0000 0.0000 33.9540 -17.7189 -7.2505 -0.7046 -5.3652 14.9533 0.0759 -14.6784 -20.0035 -0.9977 -6.3565 17.8223 12.3327 3.5072 11.8282 4.9257 6.3662 3.9235 -2.4741 3.2671 -1.6912 -8.3934 -1.4107 -12.4919 1.3151 1.1211 38.2195 2.3570 -0.1520 15.5593 0.0000 0.0000 0.0000 -86.3452 2.5049 26.7495 24.0028 -35.1673 -7.7082 -0.0000 0.0000 -6.8196 15.5332 21.3303 5.7731 -7.1250 0.0000 -0.0000 -13.3342 51.5572 -2.1860 0.0000 0.0000 0.0000 83.8035 4.7879 31.1177 -13.3592 21.8112 -2.5852 0.0000 -0.0000 -2.8984 -21.8587 10.2530 -4.0842 7.1250 -0.0000 -0.0000 3.6611 -18.9639 2.2773
0.00 0.00 0.00 -195.9180 -237.8460 1243.4100 0.0000 0.0000 0.0000 -1.2976 -1.4907 -71.3708 30.9216 16.8579 123.6392 -0.7254 -26.0643 -13.4574 0.0075 0.5605 1.5401 0.0000 0.0000 0.0000 34.5315 -20.4828 -2.1559 -0.2933 -3.4828 9.6259 0.9671 -20.3497 -19.4959 -0.8207 -5.7805 16.1490 12.7176 4.1974 13.2743 4.4657 7.5182 4.5582 -3.3644 3.8925 -1.5370 -7.9651 -2.0471 -11.7410 2.2592 -0.1862 37.9366 2.4812 -0.4348 15.3067 -0.0000 -0.0000 0.0000 -85.0176 1.5134 23.6476 25.1066 -36.3128 -8.3530 -0.0000 0.0000 -7.1551 18.6156 21.9566 7.1784 -7.1250 0.0000 -0.0000 -10.5478 52.7192 -2.0217 -0.0000 -0.0000 0.0000 83.8538 3.8554 34.1225 -16.2341 25.8371 -3.7474 0.0000 -0.0000 -6.1144 -23.4141 10.7379 -4.6127 7.1250 -0.0000 -0.0000 2.5779 -18.3107 1.6391
0.00 0.00 0.00 -213.3260 -255.2830 1237.3000 0.0000 0.0000 0.0000 -8.9786 -7.9022 -52.4137 12.0201 18.3991 66.0526 0.0064 -18.5934 -13.1348 1.2094 6.9767 19.6464 0.0000 0.0000 0.0000 22.3246 -1.0629 -13.6827 -6.9225 -15.2663 48.5806 0.3501 -14.7216 5.7274 -0.4579 -4.3406 12.0370 2.8478 2.6075 15.8784 2.4697 4.2110 3.1701 0.1467 2.0938 -5.4934 -7.5891 -0.9773 -17.0258 3.8121 0.4224 30.3500 2.9112 0.0354 12.9686 -0.0000 -0.0000 0.0000 -87.0271 -1.6894 28.7266 21.3939 -32.2852 -6.2590 -0.0000 0.0000 -8.0430 21.5229 21.0092 8.0477 -7.1250 0.0000 -0.0000 -7.2987 52.2672 -1.3114 -0.0000 -0.0000 0.0000 86.8560 5.1327 27.0726 -17.1497 27.0547 -4.1552 0.0000 -0.0000 -11.6992 -22.6004 10.4677 -4.3249 7.1250 -0.0000 -0.0000 3.1424 -18.6726 1.9739
0.00 0.00 0.00 -208.1210 -258.1510 1240.5000 0.0000 0.0000 0.0000 -15.7812 -2.6515 -36.0767 6.1543 14.5762 45.5978 -0.6961 -19.5529 -6.7722 1.5050 7.7484 21.9526 0.0000 0.0000 0.0000 19.8582 0.4343 -22.3275 -11.9954 -18.3887 65.9741 -0.3241 -3.6720 -12.7434 -0.1479 -2.4781 6.8289 -0.2242 1.6808 15.1448 2.1580 2.4401 2.8329 1.9217 1.2665 -5.5822 -7.2436 -0.9371 -16.4637 3.3031 0.6133 31.8342 2.7267 0.0909 13.4694 -0.0000 0.0000 0.0000 -86.4706 -1.4262 28.4288 22.7465 -33.8104 -6.9967 -0.0000 0.0000 -10.5915 22.8951 21.3384 8.7363 -7.1250 0.0000 -0.0000 -6.0191 52.8608 -1.1676 -0.0000 0.0000 0.0000 85.8082 4.8110 27.5861 -18.6603 28.9944 -4.8651 0.0000 -0.0000 -12.1100 -24.3591 10.4194 -4.6811 7.1250 -0.0000 -0.0000 1.8967 -18.5713 1.1945
0.00 0.00 0.00 -276.9880 -262.1380 1158.8100 0.0000 0.0000 0.0000 -8.7620 -6.3323 -32.8629 7.2602 15.5472 49.8518 0.1928 -4.5715 11.2472 0.0583 1.5579 4.2853 0.0000 0.0000 0.0000 31.6956 1.1886 -0.3074 -4.2391 -12.4720 37.4228 -1.9739 11.6079 -25.3345 -0.5746 -4.8543 13.4935 5.9237 1.3064 10.4490 3.4144 2.6266 3.5218 -0.0973 1.3940 -2.0815 -9.4621 -2.9611 -11.6904 3.3653 -0.8312 39.8375 3.2480 -0.6324 16.3722 -0.0000 -0.0000 0.0000 -89.8638 6.2719 14.8502 13.7234 -22.3378 -2.7221 -0.0000 0.0000 -0.1273 18.1194 20.4277 6.5155 -7.1250 0.0000 -0.0000 -10.4686 51.0835 -1.5837 -0.0000 -0.0000 0.0000 84.2862 0.4880 24.1577 -19.5730 30.1245 -5.3154 0.0000 -0.0000 -15.5925 -22.1385 9.3861 -3.7960 7.1250 -0.0000 -0.0000 3.4390 -19.8707 2.0690
0.00 0.00 0.00 -251.0020 -262.7050 1182.4200 0.0000 0.0000 0.0000 -12.4452 -2.3891 -16.6575 0.9993 6.3614 17.8367 1.1078 12.4760 19.4877 0.0554 1.5193 4.1789 0.0000 0.0000 0.0000 26.6640 -3.9543 -5.0813 -12.4144 -18.5604 67.2964 -3.2475 18.6422 -33.2404 -0.3784 3.9506 -10.9378 5.0799 1.2268 6.2189 3.4925 2.0628 3.7055 0.6346 1.1439 0.3875 -8.6642 -1.8747 -10.8038 2.6983 0.9402 40.9648 3.1462 0.1567 16.5972 0.0000 0.0000 0.0000 -90.1397 13.3284 13.1588 12.3651 -20.3500 -2.2276 -0.0000 -0.0000 1.2138 14.9113 20.8519 5.4147 -7.1250 0.0000 -0.0000 -13.7432 50.9808 -2.0583 0.0000 0.0000 0.0000 81.6634 -0.2531 28.6630 -28.5983 39.6612 -10.5033 0.0000 -0.0000 -16.4989 -20.6597 9.8562 -3.6930 7.1250 -0.0000 -0.0000 4.5044 -19.4779 2.7531
